# xmcd CD database file
#
# Track frame offsets:
#	150
#	26502
#	45980
#	64940
#	86605
#	104197
#	121675
#	137930
#	155045
#	175432
#	202922
#	232715
#	253500
#	269230
#	287712
#	309100
#	332315
#
# Disc length: 4721 seconds
#
# Revision: 1
# Processed by: cddbd v1.5.2PL0 Copyright (c) Steve Scherf et al.
# Submitted via: jetAudio 7
#
DISCID=ec126f11
DTITLE=STING - Collection 2000
DYEAR=1900
DGENRE=Blues
TTITLE0=A Thousand Years
TTITLE1=Englishman In New York
TTITLE2=If You Love Somebody Sef Them Free
TTITLE3=All This Time
TTITLE4=Moon Over Bourbon Street
TTITLE5=Mad About You
TTITLE6=Pields Of Gold
TTITLE7=Fragil
TTITLE8=Shape Of My Heart
TTITLE9=Brand New Day
TTITLE10=Lef You Soul Be Your Pillot
TTITLE11=Why Should I Gry For You?
TTITLE12=Love Is The Seventh Wave
TTITLE13=Ain t No Sunshine
TTITLE14=Desert Rose
TTITLE15=La Belle Dame Sans Regrets
TTITLE16=I t´s Probably Me
EXTD=
EXTT0=
EXTT1=
EXTT2=
EXTT3=
EXTT4=
EXTT5=
EXTT6=
EXTT7=
EXTT8=
EXTT9=
EXTT10=
EXTT11=
EXTT12=
EXTT13=
EXTT14=
EXTT15=
EXTT16=
PLAYORDER=
